HIERARCHY
ROOT hip
{
	OFFSET 0.000000 0.000000 0.000000 
	CHANNELS 6 Xposition Yposition Zposition Xrotation Zrotation Yrotation
	JOINT abdomen
	{
		OFFSET 0.000000 3.402643 0.000000 
		CHANNELS 3 Xrotation Zrotation Yrotation
		JOINT chest
		{
			OFFSET 0.000000 8.438565 -0.680529 
			CHANNELS 3 Xrotation Zrotation Yrotation
			JOINT neck
			{
				OFFSET 0.000000 10.207942 -0.272212 
				CHANNELS 3 Xrotation Zrotation Yrotation
				JOINT head
				{
					OFFSET 0.000000 3.130431 0.000000 
					CHANNELS 3 Xrotation Zrotation Yrotation
					End Site
					{
						OFFSET 0.000000 3.130435 0.000000 
					}
				}
			}
			JOINT lCollar
			{
				OFFSET 3.470700 6.669187 -0.816635 
				CHANNELS 3 Yrotation Zrotation Xrotation
				JOINT lShldr
				{
					OFFSET 3.198488 0.000000 0.000000 
					CHANNELS 3 Zrotation Yrotation Xrotation
					JOINT lForeArm
					{
						OFFSET 10.139888 0.000000 0.000000 
						CHANNELS 3 Yrotation Zrotation Xrotation
						JOINT lHand
						{
							OFFSET 8.370511 0.000000 0.000000 
							CHANNELS 3 Zrotation Yrotation Xrotation
							End Site
							{
								OFFSET 4.083176 0.000000 0.000000 
							}
						}
					}
				}
			}
			JOINT rCollar
			{
				OFFSET -3.470700 6.669187 -0.816635 
				CHANNELS 3 Yrotation Zrotation Xrotation
				JOINT rShldr
				{
					OFFSET -3.198488 0.000000 0.000000 
					CHANNELS 3 Zrotation Yrotation Xrotation
					JOINT rForeArm
					{
						OFFSET -10.139888 0.000000 0.000000 
						CHANNELS 3 Yrotation Zrotation Xrotation
						JOINT rHand
						{
							OFFSET -8.370511 0.000000 0.000000 
							CHANNELS 3 Zrotation Yrotation Xrotation
							End Site
							{
								OFFSET -4.083176 0.000000 0.000000 
							}
						}
					}
				}
			}
		}
	}
	JOINT lThigh
	{
		OFFSET 5.308129 -1.633274 1.361059 
		CHANNELS 3 Xrotation Zrotation Yrotation
		JOINT lShin
		{
			OFFSET -2.041588 -20.007561 0.000000 
			CHANNELS 3 Xrotation Zrotation Yrotation
			JOINT lFoot
			{
				OFFSET 0.000000 -19.190928 -1.224953 
				CHANNELS 3 Xrotation Yrotation Zrotation
				End Site
				{
					OFFSET 0.000000 -2.449906 4.627600 
				}
			}
		}
	}
	JOINT rThigh
	{
		OFFSET -5.308129 -1.633274 1.361059 
		CHANNELS 3 Xrotation Zrotation Yrotation
		JOINT rShin
		{
			OFFSET 2.041588 -20.007561 0.000000 
			CHANNELS 3 Xrotation Zrotation Yrotation
			JOINT rFoot
			{
				OFFSET 0.000000 -19.190928 -1.224953 
				CHANNELS 3 Xrotation Yrotation Zrotation
				End Site
				{
					OFFSET 0.000000 -2.449906 4.627600 
				}
			}
		}
	}
}
MOTION
Frames: 16
Frame Time: 0.016667
-0.298120 53.008381 -4.637587 -6.605287 -1.198984 8.058339 28.189760 -0.923459 -0.038298 -2.067846 -0.371086 -0.585993 -3.036338 -5.608444 0.006857 7.608452 -12.309671 65.808578 -9.883887 -5.013686 -0.267017 -53.535091 15.891537 -13.631479 -22.731779 -5.000000 36.822914 -23.649843 29.845881 38.832851 -1.322319 -4.181104 0.209251 67.260284 -18.050463 -18.352833 12.041900 5.000000 45.000000 0.120282 -24.278337 20.365625 7.402568 17.019894 -4.998899 -1.929426 -4.925881 -0.038184 1.723628 6.120825 -8.532508 11.508372 -9.152555 14.488781 -1.265820 3.617742 0.051899 -4.890603 -9.023175 8.480835 
-0.292232 53.008381 -4.642089 -6.605083 -1.199013 8.048576 28.199425 -0.903383 -0.008519 -2.057691 -0.380849 -0.615290 -3.134931 -5.558710 0.010118 7.531910 -12.450084 65.633690 -9.932350 -4.935658 -0.262986 -53.641026 15.868259 -13.647451 -22.675121 -5.000000 36.858425 -23.937166 30.000000 39.078251 -1.420116 -4.142077 0.207233 67.193604 -18.032190 -18.337677 12.092006 5.000000 45.000000 0.298541 -24.013386 20.241817 7.402287 17.009912 -5.042814 -1.970819 -4.940096 -0.005248 1.706208 6.166795 -8.504845 11.491260 -9.155327 14.548399 -1.227194 3.619463 0.015507 -4.837568 -9.029527 8.469565 
-0.285016 53.009613 -4.645439 -6.603512 -1.189372 8.038813 28.199579 -0.869026 -0.016426 -2.057366 -0.380846 -0.664117 -3.282366 -5.586224 0.024111 7.535187 -12.499137 65.614029 -9.912683 -4.906403 -0.261475 -53.761440 15.951564 -13.746759 -22.800055 -5.000000 36.690250 -24.434923 30.000000 39.984119 -1.488683 -4.083550 0.204206 67.100212 -17.988195 -18.266878 12.177178 5.000000 45.000000 0.512848 -23.675247 20.097393 7.419189 17.002512 -5.061475 -2.008507 -4.946025 -0.001861 1.700491 6.152718 -8.520833 11.479177 -9.173210 14.555094 -1.219070 3.622203 0.016098 -4.834212 -9.038653 8.486490 
-0.276942 53.011677 -4.648026 -6.610147 -1.170089 8.019087 28.219431 -0.842489 -0.059313 -2.066960 -0.371079 -0.722709 -3.468903 -5.652359 0.043946 7.593144 -12.489785 65.686913 -9.854180 -4.925918 -0.262484 -53.874371 16.098946 -13.905233 -23.057053 -5.000000 36.376732 -25.043655 30.000000 41.297539 -1.547481 -4.025024 0.201178 66.982758 -17.925817 -18.155411 12.280116 5.000000 45.000000 0.733471 -23.296577 19.947311 7.449375 16.966585 -5.054154 -2.029266 -4.959001 -0.009579 1.673879 6.165688 -8.515139 11.474550 -9.218398 14.519415 -1.210428 3.615701 0.046250 -4.820666 -8.967380 8.497484 
-0.271095 53.013325 -4.653355 -6.598623 -1.160474 7.999560 28.229515 -0.807056 -0.098171 -2.096134 -0.351545 -0.800830 -3.626158 -5.699183 0.060858 7.607475 -12.475641 65.789772 -9.805444 -4.945431 -0.263493 -53.975021 16.250359 -14.050855 -23.289625 -5.000000 36.118938 -25.611174 30.000000 42.329376 -1.596545 -3.956749 0.197646 66.884827 -17.857037 -18.050255 12.352322 5.000000 45.000000 0.927665 -22.838472 19.768797 7.461194 16.971899 -5.050425 -2.047085 -4.983696 -0.016856 1.696825 6.161920 -8.537560 11.463570 -9.236146 14.506490 -1.189437 3.591508 0.038541 -4.830903 -8.927985 8.545826 
-0.274195 53.013317 -4.669667 -6.582414 -1.179731 8.029049 28.249584 -0.738078 -0.143227 -2.135157 -0.312480 -0.918013 -3.665163 -5.641248 0.052095 7.504014 -12.430182 66.012444 -9.776422 -5.003951 -0.266516 -54.024673 16.393961 -14.170582 -23.424309 -5.000000 36.075912 -26.176489 30.000000 42.253021 -1.616404 -3.859220 0.192599 66.834511 -17.747278 -17.947109 12.323489 5.000000 45.000000 0.991737 -22.107573 19.446484 7.370497 17.004017 -5.104915 -2.010842 -5.020395 -0.048038 1.744046 6.179647 -8.532553 11.397011 -9.179407 14.474583 -1.130201 3.549111 0.043789 -4.870704 -8.936143 8.561753 
-0.277302 53.013317 -4.685975 -6.557622 -1.208682 8.048575 28.259712 -0.691168 -0.186847 -2.174332 -0.273416 -1.035195 -3.705120 -5.581859 0.052944 7.389524 -12.383455 66.245453 -9.757166 -5.062469 -0.269539 -54.072948 16.531681 -14.282763 -23.562487 -5.000000 36.024292 -26.742073 30.000000 42.190224 -1.645989 -3.771442 0.188056 66.795296 -17.638243 -17.858995 12.288352 5.000000 45.000000 1.053069 -21.366964 19.115065 7.303721 17.057104 -5.153605 -2.000264 -5.067244 -0.066693 1.796837 6.139246 -8.568873 11.338269 -9.110917 14.445579 -1.061852 3.499322 0.069392 -4.936749 -9.021594 8.531944 
-0.273724 53.011669 -4.701045 -6.519512 -1.218410 8.029048 28.221010 -0.634493 -0.194595 -2.203827 -0.244120 -1.113316 -3.666015 -5.533580 0.045643 7.337004 -12.359847 66.232903 -9.785790 -5.103135 -0.261967 -54.149811 16.605869 -14.344164 -23.476940 -5.000000 36.201782 -26.692530 30.000000 42.122498 -1.635941 -3.664444 0.192245 66.758690 -17.536840 -17.791740 11.858181 5.000000 45.000000 0.015111 -20.879608 18.765903 7.226785 17.059313 -5.146818 -1.988740 -5.081595 -0.047454 1.814120 6.146671 -8.525221 11.259632 -9.100900 14.498250 -1.033457 3.445822 0.043544 -4.872750 -8.951792 8.619230 
-0.268474 53.009613 -4.715810 -6.471629 -1.228139 8.009520 28.172485 -0.568679 -0.198949 -2.233399 -0.214824 -1.181672 -3.607386 -5.485302 0.038341 7.290987 -12.337804 66.167007 -9.834846 -5.151897 -0.264486 -54.224834 16.660580 -14.398590 -23.324028 -5.000000 36.447124 -26.467768 30.000000 42.066872 -1.626557 -3.547413 0.186187 66.712936 -17.451176 -17.723808 11.313638 5.000000 45.000000 -1.298973 -20.474180 18.398561 7.177619 17.059238 -5.123494 -1.971721 -5.098338 -0.038730 1.827477 6.121671 -8.514427 11.177011 -9.094692 14.577645 -1.023393 3.397877 0.045502 -4.846611 -8.980633 8.671070 
-0.261878 53.009201 -4.722408 -6.440349 -1.218556 7.980230 28.113955 -0.519803 -0.189551 -2.262929 -0.195294 -1.201201 -3.509695 -5.427367 0.029580 7.234583 -12.409774 66.025414 -9.913246 -5.210412 -0.267508 -54.302608 16.712961 -14.466559 -23.191332 -5.000000 36.635441 -26.322279 30.000000 42.079147 -1.607335 -3.449888 0.181139 66.726273 -17.360477 -17.678574 10.970292 5.000000 45.000000 -1.928362 -20.806683 18.187227 7.156393 17.035845 -5.097622 -1.980432 -5.105448 -0.037666 1.813740 6.114950 -8.505445 11.138370 -9.095256 14.627270 -1.031685 3.353972 0.026509 -4.818958 -9.001995 8.695488 
-0.253270 53.011265 -4.716769 -6.437228 -1.199271 7.960704 28.035643 -0.471602 -0.181816 -2.272797 -0.185529 -1.181668 -3.343641 -5.330810 0.014977 7.129349 -12.613253 65.791275 -10.040617 -5.298184 -0.272041 -54.363754 16.781483 -14.544645 -23.059000 -5.000000 36.735222 -26.300592 30.000000 42.156750 -1.617251 -3.401124 0.178615 66.807732 -17.270885 -17.657776 10.905892 5.000000 45.000000 -1.545181 -22.220606 18.217806 7.175705 16.994305 -5.071404 -1.980768 -5.116106 -0.047053 1.818895 6.156195 -8.439208 11.167550 -9.104683 14.625768 -1.051852 3.326957 0.016158 -4.813665 -9.025676 8.707646 
-0.244658 53.013325 -4.711127 -6.434120 -1.179985 7.940976 27.967039 -0.417667 -0.161499 -2.292602 -0.165999 -1.142603 -3.178498 -5.242454 0.011451 7.034986 -12.817941 65.560112 -10.167996 -5.385957 -0.276573 -54.437595 16.845146 -14.641899 -22.938589 -5.000000 36.826847 -26.259144 30.000000 42.264549 -1.617430 -3.342609 0.175585 66.880707 -17.188198 -17.639872 10.842024 5.000000 45.000000 -1.172393 -23.637154 18.257923 7.206469 16.969641 -5.072695 -2.009904 -5.125753 -0.044287 1.818622 6.186852 -8.396949 11.188350 -9.126566 14.622694 -1.093084 3.302793 -0.005348 -4.844035 -8.997846 8.716595 
-0.234786 53.013321 -4.717968 -6.443885 -1.179984 7.940978 27.918447 -0.373147 -0.142009 -2.234331 -0.146471 -1.171897 -3.158961 -5.203831 0.005611 7.108357 -12.623320 65.486954 -10.178050 -5.444472 -0.279594 -54.495434 16.775839 -14.649864 -22.818361 -5.000000 36.915012 -25.661310 30.000000 41.943798 -1.598045 -3.293846 0.173061 66.958862 -17.077326 -17.657604 11.533779 5.000000 45.000000 1.649329 -24.587685 18.530436 7.176955 16.950747 -5.087234 -1.989134 -5.112552 -0.036601 1.795311 6.205364 -8.378629 11.179677 -9.156492 14.628257 -1.081349 3.337738 0.004131 -4.861158 -9.031107 8.692045 
-0.224915 53.013317 -4.724803 -6.443885 -1.179984 7.940978 27.860174 -0.324599 -0.131474 -2.185706 -0.136707 -1.181662 -3.149193 -5.165208 -0.000230 7.190307 -12.424240 65.411018 -10.188058 -5.493235 -0.282111 -54.561890 16.712017 -14.654966 -22.698311 -5.000000 37.003155 -25.064148 30.000000 41.608040 -1.578686 -3.235331 0.170031 67.027771 -16.982212 -17.677368 12.227461 5.000000 45.000000 4.476188 -25.562992 18.763336 7.168127 16.922710 -5.108821 -1.980081 -5.094150 -0.008780 1.774062 6.263634 -8.346818 11.167652 -9.173079 14.645086 -1.090205 3.344833 -0.006477 -4.846633 -9.011284 8.721845 
-0.222062 53.013317 -4.744790 -6.472830 -1.170173 7.989794 27.899380 -0.282372 -0.135266 -2.196052 -0.087882 -1.240249 -3.159826 -5.096162 -0.000832 7.170580 -12.449595 65.290596 -10.150172 -5.540276 -0.294197 -54.600872 16.624855 -14.612449 -22.568281 -5.000000 37.166260 -24.408005 30.000000 40.681114 -1.549968 -3.225314 0.159779 67.080482 -16.892757 -17.650949 12.086767 5.000000 45.000000 4.327196 -24.560333 18.765278 7.116489 16.925512 -5.174012 -1.922545 -5.116688 -0.032357 1.761734 6.238926 -8.355679 11.180709 -9.187736 14.653476 -1.073234 3.370211 -0.025410 -4.832628 -9.024188 8.717895 
-0.223903 53.013317 -4.773543 -6.512314 -1.160251 8.077669 28.016674 -0.242080 -0.161393 -2.255420 -0.029294 -1.328130 -3.210357 -5.016006 0.006728 7.107629 -12.614599 65.139061 -10.082120 -5.598802 -0.297218 -54.621185 16.519907 -14.519592 -22.446480 -5.000000 37.365803 -23.682226 29.783115 39.325737 -1.530410 -3.235070 0.160284 67.110558 -16.810654 -17.594316 11.398005 5.000000 45.000000 2.211553 -22.247797 18.569160 7.048369 16.925283 -5.268890 -1.832089 -5.129214 -0.048939 1.771455 6.203369 -8.368766 11.171079 -9.187812 14.613840 -1.014577 3.379271 0.017359 -4.840443 -9.090897 8.720468 
